<?xml version="1.0" encoding="iso-8859-1"?>
<!-- Generator: Adobe Illustrator 19.0.0, SVG Export Plug-In . SVG Version: 6.00 Build 0)  -->
<svg version="1.1" id="Capa_1" xmlns="http://www.w3.org/2000/svg" xmlns:xlink="http://www.w3.org/1999/xlink" x="0px" y="0px"
	 viewBox="0 0 512 512" style="enable-background:new 0 0 512 512;" xml:space="preserve">
<g>
	<g>
		<g>
			<path d="M480,416V208h-32v208H64V208c0-8.837,7.163-16,16-16h48v-32H80c-26.51,0-48,21.49-48,48v208H0v75.536L61.408,512h389.184
				L512,491.536V416H480z M480,468.464L445.408,480H66.592L32,468.464V448h448V468.464z"/>
			<path d="M114.064,336.049C121.336,364.301,146.827,384.036,176,384c35.276,0.044,63.908-28.517,63.951-63.792
				c0.036-29.173-19.699-54.664-47.951-61.936V168c0-22.091,17.909-40,40-40s40,17.909,40,40v48c0,39.764,32.236,72,72,72
				c39.765,0,72-32.236,72-72v-25.6c37.223-7.655,63.952-40.398,64-78.4V0h-62.992v32H448v80c0,26.51-21.49,48-48,48
				c-26.51,0-48-21.49-48-48V32h32V0h-64v112c0.048,38.002,26.777,70.745,64,78.4V216c0,22.091-17.909,40-40,40
				c-22.091,0-40-17.909-40-40v-48c0-39.765-32.235-72-72-72c-39.764,0-72,32.235-72,72v90.272
				C125.838,267.065,105.272,301.886,114.064,336.049z M176,288c17.673,0,32,14.327,32,32c0,17.673-14.327,32-32,32
				s-32-14.327-32-32C144,302.327,158.327,288,176,288z"/>
			<polygon points="384,352 352,352 352,384 416,384 416,320 384,320 			"/>
			<rect x="288" y="352" width="32" height="32"/>
		</g>
	</g>
</g>
<g>
</g>
<g>
</g>
<g>
</g>
<g>
</g>
<g>
</g>
<g>
</g>
<g>
</g>
<g>
</g>
<g>
</g>
<g>
</g>
<g>
</g>
<g>
</g>
<g>
</g>
<g>
</g>
<g>
</g>
</svg>
